<mxfile host="app.diagrams.net" modified="2021-07-05T00:55:20.071Z" agent="5.0 (Windows NT 10.0; Win64; x64) AppleWebKit/537.36 (KHTML, like Gecko) Chrome/91.0.4472.114 Safari/537.36" etag="QIP-IJopfpqXhQr29L2T" version="14.8.3" type="github">
  <diagram id="yG28hlRZ75OqcgNVEaHG" name="Page-1">
    <mxGraphModel dx="2249" dy="882" grid="1" gridSize="10" guides="1" tooltips="1" connect="1" arrows="1" fold="1" page="1" pageScale="1" pageWidth="827" pageHeight="1169" math="0" shadow="0">
      <root>
        <mxCell id="0" />
        <mxCell id="1" parent="0" />
        <mxCell id="DKLd8Jj6RDAN12mgZKQ2-3" value="" style="orthogonalLoop=1;jettySize=auto;html=1;rounded=0;" parent="1" source="DKLd8Jj6RDAN12mgZKQ2-1" target="DKLd8Jj6RDAN12mgZKQ2-2" edge="1">
          <mxGeometry relative="1" as="geometry" />
        </mxCell>
        <mxCell id="DKLd8Jj6RDAN12mgZKQ2-4" value="Generate Non-QD Contract" style="edgeLabel;html=1;align=center;verticalAlign=middle;resizable=0;points=[];" parent="DKLd8Jj6RDAN12mgZKQ2-3" vertex="1" connectable="0">
          <mxGeometry x="-0.2222" y="-2" relative="1" as="geometry">
            <mxPoint x="-48" y="12" as="offset" />
          </mxGeometry>
        </mxCell>
        <mxCell id="DKLd8Jj6RDAN12mgZKQ2-6" value="" style="edgeStyle=none;rounded=0;orthogonalLoop=1;jettySize=auto;html=1;strokeColor=#000000;" parent="1" source="DKLd8Jj6RDAN12mgZKQ2-1" target="DKLd8Jj6RDAN12mgZKQ2-5" edge="1">
          <mxGeometry relative="1" as="geometry" />
        </mxCell>
        <mxCell id="DKLd8Jj6RDAN12mgZKQ2-7" value="Generate QD Contract" style="edgeLabel;html=1;align=center;verticalAlign=middle;resizable=0;points=[];" parent="DKLd8Jj6RDAN12mgZKQ2-6" vertex="1" connectable="0">
          <mxGeometry x="-0.1849" y="1" relative="1" as="geometry">
            <mxPoint x="41" y="9" as="offset" />
          </mxGeometry>
        </mxCell>
        <mxCell id="DKLd8Jj6RDAN12mgZKQ2-1" value="Proposal" style="rounded=1;whiteSpace=wrap;html=1;fillColor=#dae8fc;strokeColor=#6c8ebf;" parent="1" vertex="1">
          <mxGeometry x="-473" y="70" width="83" height="30" as="geometry" />
        </mxCell>
        <mxCell id="DKLd8Jj6RDAN12mgZKQ2-2" value="Contract" style="whiteSpace=wrap;html=1;rounded=1;strokeColor=#6c8ebf;fillColor=#dae8fc;" parent="1" vertex="1">
          <mxGeometry x="-543" y="200" width="83" height="30" as="geometry" />
        </mxCell>
        <mxCell id="DKLd8Jj6RDAN12mgZKQ2-9" value="" style="edgeStyle=none;rounded=0;orthogonalLoop=1;jettySize=auto;html=1;strokeColor=#000000;" parent="1" source="DKLd8Jj6RDAN12mgZKQ2-5" target="DKLd8Jj6RDAN12mgZKQ2-8" edge="1">
          <mxGeometry relative="1" as="geometry" />
        </mxCell>
        <mxCell id="DKLd8Jj6RDAN12mgZKQ2-11" value="" style="edgeStyle=none;rounded=0;orthogonalLoop=1;jettySize=auto;html=1;strokeColor=#000000;" parent="1" source="DKLd8Jj6RDAN12mgZKQ2-5" target="DKLd8Jj6RDAN12mgZKQ2-10" edge="1">
          <mxGeometry relative="1" as="geometry" />
        </mxCell>
        <mxCell id="DKLd8Jj6RDAN12mgZKQ2-5" value="QD Contract" style="whiteSpace=wrap;html=1;rounded=1;strokeColor=#6c8ebf;fillColor=#dae8fc;" parent="1" vertex="1">
          <mxGeometry x="-400" y="200" width="83" height="30" as="geometry" />
        </mxCell>
        <mxCell id="DKLd8Jj6RDAN12mgZKQ2-8" value="All Items QD" style="whiteSpace=wrap;html=1;rounded=1;strokeColor=#6c8ebf;fillColor=#dae8fc;" parent="1" vertex="1">
          <mxGeometry x="-460" y="320" width="83" height="30" as="geometry" />
        </mxCell>
        <mxCell id="DKLd8Jj6RDAN12mgZKQ2-10" value="Regular QD" style="whiteSpace=wrap;html=1;rounded=1;strokeColor=#6c8ebf;fillColor=#dae8fc;" parent="1" vertex="1">
          <mxGeometry x="-337" y="320" width="83" height="30" as="geometry" />
        </mxCell>
        <mxCell id="MQnVNTlTdbHmsgRzIxet-3" style="rounded=0;orthogonalLoop=1;jettySize=auto;html=1;entryX=0;entryY=0.5;entryDx=0;entryDy=0;" parent="1" source="MQnVNTlTdbHmsgRzIxet-1" target="DKLd8Jj6RDAN12mgZKQ2-2" edge="1">
          <mxGeometry relative="1" as="geometry" />
        </mxCell>
        <mxCell id="MQnVNTlTdbHmsgRzIxet-1" value="Contract Data Handler" style="rounded=1;whiteSpace=wrap;html=1;fillColor=#fff2cc;strokeColor=#d6b656;" parent="1" vertex="1">
          <mxGeometry x="-710" y="195" width="103" height="40" as="geometry" />
        </mxCell>
        <mxCell id="MQnVNTlTdbHmsgRzIxet-4" style="edgeStyle=none;rounded=0;orthogonalLoop=1;jettySize=auto;html=1;entryX=1;entryY=0.5;entryDx=0;entryDy=0;" parent="1" source="MQnVNTlTdbHmsgRzIxet-2" target="DKLd8Jj6RDAN12mgZKQ2-5" edge="1">
          <mxGeometry relative="1" as="geometry" />
        </mxCell>
        <mxCell id="MQnVNTlTdbHmsgRzIxet-2" value="QD Contract Data Handler" style="rounded=1;whiteSpace=wrap;html=1;fillColor=#fff2cc;strokeColor=#d6b656;" parent="1" vertex="1">
          <mxGeometry x="-250" y="195" width="103" height="40" as="geometry" />
        </mxCell>
      </root>
    </mxGraphModel>
  </diagram>
</mxfile>
